<svg xmlns="http://www.w3.org/2000/svg" viewBox="0 0 147.83 155.08"><title>bestprice</title><path d="M75.1,15.1,18.6,41.3a11.41,11.41,0,0,0-6.5,12.1C23.5,125.2,62,148.2,75.3,154.1a11.34,11.34,0,0,0,9.2,0c13.3-5.9,51.7-28.9,63.2-100.7a11.41,11.41,0,0,0-6.5-12.1L84.7,15.1A10.8,10.8,0,0,0,75.1,15.1Z" transform="translate(-0.01)" style="fill:#e5f5df"/><path d="M72.9,151a17.11,17.11,0,0,1-6.7-1.4c-7-3.1-20.8-10.8-34.1-27C16,102.9,5.3,76.9.2,45.1A16.51,16.51,0,0,1,9.5,27.7L66,1.5a16.62,16.62,0,0,1,13.8,0l56.5,26.2a16.51,16.51,0,0,1,9.3,17.4c-5.1,31.7-15.8,57.8-31.9,77.4-13.4,16.3-27.1,23.9-34.1,27A15.6,15.6,0,0,1,72.9,151ZM70.2,10.6,13.7,36.8A6.51,6.51,0,0,0,10,43.6c2.8,17.7,15.5,77.1,60.3,96.9a6.7,6.7,0,0,0,5.2,0c44.7-19.8,57.5-79.2,60.3-96.9a6.58,6.58,0,0,0-3.6-6.8L75.6,10.6A6.37,6.37,0,0,0,70.2,10.6Z" transform="translate(-0.01)" style="fill:#48b300"/><path d="M69.3,23.2,26.8,43a8.52,8.52,0,0,0-4.9,9.1c8.6,54,37.5,71.3,47.5,75.8a8.54,8.54,0,0,0,7,0c10-4.4,38.9-21.8,47.5-75.8A8.52,8.52,0,0,0,119,43L76.6,23.2A9.26,9.26,0,0,0,69.3,23.2Z" transform="translate(-0.01)" style="fill:#48b300"/><path d="M68.5,92.5a4.37,4.37,0,0,1-3.3-1.4L50.4,75.7a4.59,4.59,0,0,1,.1-6.5,4.68,4.68,0,0,1,6.5.1L68.4,81.2,88.7,59.9a4.6,4.6,0,1,1,6.7,6.3h0L71.8,91.1a4.37,4.37,0,0,1-3.3,1.4Z" transform="translate(-0.01)" style="fill:#fff"/></svg>