<svg xmlns="http://www.w3.org/2000/svg" viewBox="0 0 512 464.4"><title>heart</title><path d="M362.74,23.8a147.65,147.65,0,0,0-67.81,16.27A150.42,150.42,0,0,0,256,68.75a150.44,150.44,0,0,0-38.93-28.69A147.65,147.65,0,0,0,149.26,23.8C67,23.8,0,90.76,0,173.06c0,58.29,30.79,120.2,91.5,184,50.7,53.28,112.76,97.69,155.9,125.57L256,488.2l8.59-5.55c43.14-27.88,105.21-72.29,155.9-125.57,60.72-63.81,91.5-125.73,91.5-184C512,90.76,445,23.8,362.74,23.8Zm34.81,311.45c-45.31,47.62-100.5,88.1-141.55,115.19-41.06-27.09-96.25-67.57-141.55-115.19C59.52,277.52,31.67,223,31.67,173.06a117.59,117.59,0,0,1,211.67-70.55L256,119.37l12.66-16.85a117.59,117.59,0,0,1,211.67,70.55C480.33,223,452.48,277.52,397.55,335.24Z" transform="translate(0 -23.8)" style="fill:#fff"/></svg>