<svg xmlns="http://www.w3.org/2000/svg" viewBox="0 0 512 464.4"><title>heart-white</title><path d="M362.74,23.8a147.65,147.65,0,0,0-67.81,16.27A150.42,150.42,0,0,0,256,68.75a150.44,150.44,0,0,0-38.93-28.69A147.65,147.65,0,0,0,149.26,23.8C67,23.8,0,90.76,0,173.06c0,58.29,30.79,120.2,91.5,184,50.7,53.28,112.76,97.69,155.9,125.57L256,488.2l8.59-5.55c43.14-27.88,105.21-72.29,155.9-125.57,60.72-63.81,91.5-125.73,91.5-184C512,90.76,445,23.8,362.74,23.8Z" transform="translate(0 -23.8)" style="fill:#fff"/></svg>