<svg xmlns="http://www.w3.org/2000/svg" viewBox="0 0 512 512"><title>hide-eye</title><path d="M508.87,478.71,33.29,3.12a10.67,10.67,0,0,0-15.09,0L3.13,18.21a10.66,10.66,0,0,0,0,15.09L91.33,121.5A274.13,274.13,0,0,0,.51,252.74a10.72,10.72,0,0,0,0,6.52C36.79,372.16,139.47,448,256,448a263.61,263.61,0,0,0,128.55-33.29l94.16,94.16a10.67,10.67,0,0,0,15.09,0l15.08-15.08A10.67,10.67,0,0,0,508.87,478.71ZM256,405.33c-82.34,0-149.33-67-149.33-149.33a149,149,0,0,1,29.86-89.31l46.38,46.38A83.58,83.58,0,0,0,170.67,256,85.43,85.43,0,0,0,256,341.33a83.58,83.58,0,0,0,42.93-12.23l46.38,46.38A149,149,0,0,1,256,405.33Z" transform="translate(0 0)"/><path d="M247,177.28A10.68,10.68,0,0,0,249.29,189L323,262.71A10.67,10.67,0,0,0,341.25,255,84.74,84.74,0,0,0,257,170.75C252.71,171.21,248.69,173.28,247,177.28Z" transform="translate(0 0)"/><path d="M179.61,119.28a10.68,10.68,0,0,0,12.15,2.08A147.75,147.75,0,0,1,256,106.67c82.34,0,149.33,67,149.33,149.33a147.75,147.75,0,0,1-14.7,64.24,10.67,10.67,0,0,0,2.08,12.15l37,37a10.66,10.66,0,0,0,7.54,3.13h0a10.72,10.72,0,0,0,7.56-3.16,278,278,0,0,0,66.68-110.06,10.72,10.72,0,0,0,0-6.52C475.21,139.84,372.53,64,256,64a265.65,265.65,0,0,0-93.42,16.92,10.66,10.66,0,0,0-3.8,17.53Z" transform="translate(0 0)"/></svg>