<?xml version="1.0" encoding="utf-8"?>
<!-- Generator: Adobe Illustrator 19.2.1, SVG Export Plug-In . SVG Version: 6.00 Build 0)  -->
<svg version="1.1" id="Layer_1" xmlns="http://www.w3.org/2000/svg" xmlns:xlink="http://www.w3.org/1999/xlink" x="0px" y="0px"
	 viewBox="0 0 170 25.8" style="enable-background:new 0 0 170 25.8;" xml:space="preserve">
<style type="text/css">
	.st0{fill:#589442;}
	.st1{fill:#000101;}
	.st2{fill:#FEE090;}
	.st3{fill:none;stroke:#5F6E72;stroke-width:5.6207;}
	.st4{fill:#FFFFFF;}
	.st5{fill:#BA2335;}
	.st6{opacity:0.5;}
</style>
<title>TA_Logo_NewGreen</title>
<path class="st0" d="M121.7,2.5c0,0.9,0.7,1.7,1.7,1.7c0.9,0,1.7-0.7,1.7-1.7c0-0.9-0.7-1.7-1.7-1.7C122.4,0.9,121.7,1.6,121.7,2.5z
	"/>
<path class="st1" d="M43.2,2.4l-2.5,0.9v3.3h-2.8v2.2h2.7v7c0,3.3,1.1,4.7,3.9,4.7c0.7,0,1.4-0.1,2.1-0.3h0.1v-2.3L46.5,18
	c-0.4,0.2-0.9,0.3-1.3,0.3c-1.3,0-1.8-0.7-1.8-2.7V8.7h3.2V6.5h-3.2V2.3L43.2,2.4z"/>
<path class="st1" d="M51.9,8.8V6.5h-2.5v13.7h2.8v-6.9c0-2.9,1.2-4.5,3.4-4.5c0.3,0,0.7,0.1,1,0.2l0.2,0.1l0.1-2.7l-1.2-0.1
	C54,6.3,52.5,7.3,51.9,8.8z"/>
<path class="st1" d="M71.7,6.2c-1.9,0-3.6,1-4.6,2.5V6.5h-2.5v19.3h2.8v-7.5c1,1.4,2.6,2.1,4.2,2.1c3.5,0,5.8-2.9,5.8-7.3
	C77.4,9,75.1,6.2,71.7,6.2z M70.9,18.2c-2.2,0-3.6-1.9-3.6-4.9c0-2.9,1.4-4.8,3.7-4.8c2.1,0,3.4,1.8,3.4,4.8
	C74.5,16.3,73.1,18.2,70.9,18.2z"/>
<path class="st0" d="M85.5,6.2c-1.6,0-3.1,0.3-4.5,1h-0.1v2.4l0.2-0.1c1.1-0.7,2.4-1.1,3.7-1.1c1.6-0.2,3,1,3.2,2.6
	c0,0.2,0,0.4,0,0.6v0.1h-1.6c-4.6,0-7.1,1.7-7.1,4.7c0,2.3,1.8,4.1,4.1,4.1c0.1,0,0.2,0,0.4,0c1.8,0.1,3.4-0.7,4.4-2.2v2h2.5V12
	C90.6,8.1,88.9,6.2,85.5,6.2z M87.9,14.5c0,2.4-1.4,3.9-3.6,3.9c-1.2,0.1-2.2-0.8-2.3-2c0-0.1,0-0.1,0-0.2c0-1.7,1.6-2.6,4.5-2.6
	h1.4V14.5z"/>
<path class="st0" d="M102.4,0v8.4c-1-1.4-2.6-2.2-4.3-2.2c-3.4,0-5.7,2.8-5.7,7c0,4.3,2.3,7.3,5.6,7.3c1.9,0,3.6-0.9,4.6-2.6v2.3
	h2.6V0H102.4z M98.8,18.2c-2.1,0-3.4-1.8-3.4-4.8s1.3-4.9,3.4-4.9c2.3,0,3.7,1.8,3.7,4.9C102.4,16.3,101,18.2,98.8,18.2z"/>
<path class="st0" d="M117.6,6.5l-3.9,7.9L110,6.5h-3.1l6.7,13.7l6.9-13.7C120.5,6.5,117.6,6.5,117.6,6.5z"/>
<path class="st0" d="M124.6,6.5H122v13.7h2.8V6.5C124.7,6.5,124.6,6.5,124.6,6.5z"/>
<path class="st0" d="M128,10.1c0,1.9,1.3,2.9,3.8,4.1c1.5,0.8,2.3,1.2,2.3,2.3s-1,1.8-2.5,1.8c-1.2,0-2.4-0.3-3.5-0.9l-0.2-0.1
	l-0.1,2.4h0.1c1.1,0.4,2.4,0.7,3.6,0.7c3.4,0,5.6-1.6,5.6-4.1c0-2.1-1.4-3.1-3.8-4.3c-1.8-0.8-2.5-1.3-2.5-2.2
	c0-0.8,0.8-1.4,2.1-1.4c1.2,0,2.3,0.3,3.3,0.8l0.2,0.1l0.1-2.4h-0.1c-1.1-0.3-2.2-0.5-3.4-0.5C130,6.4,128,7.9,128,10.1z"/>
<path class="st0" d="M145.7,6.2c-4.2,0-6.8,2.7-6.8,7.2s2.6,7.2,6.8,7.2s6.8-2.7,6.8-7.2S149.9,6.2,145.7,6.2z M145.7,18.3
	c-2.3,0-3.9-2-3.9-4.9c0-3,1.6-5,3.9-5c2.3,0,3.9,1.9,3.9,5C149.6,16.4,148.1,18.3,145.7,18.3z"/>
<path class="st0" d="M157.6,8.8V6.5h-2.5v13.7h2.8v-6.9c0-2.9,1.2-4.5,3.4-4.5c0.3,0,0.7,0.1,1,0.2l0.2,0.1l0.1-2.7l-1.2-0.1
	C159.7,6.3,158.3,7.3,157.6,8.8z"/>
<path class="st1" d="M61.8,6.5h-2.6v13.7H62V6.5H61.8z"/>
<path class="st1" d="M58.9,2.5c0,0.9,0.7,1.7,1.7,1.7s1.7-0.7,1.7-1.7c0-0.9-0.7-1.7-1.7-1.7C59.6,0.9,58.9,1.6,58.9,2.5z"/>
<path class="st2" d="M5.9,4.3c3.2-0.4,12.3-0.7,9.8,12.5l2.8-0.2C17.3,8.5,19.9,4.3,28,3.9C14.6-3.6,6.9,4.2,5.9,4.3z"/>
<path class="st3" d="M20.9,1.5"/>
<ellipse transform="matrix(0.9381 -0.3465 0.3465 0.9381 -2.5653 9.6437)" class="st4" cx="25.7" cy="12" rx="7.7" ry="7.7"/>
<circle class="st4" cx="8.6" cy="12" r="7.7"/>
<circle class="st5" cx="8.5" cy="11.9" r="1.4"/>
<circle class="st0" cx="25.7" cy="11.9" r="1.4"/>
<path class="st1" d="M32.6,6.9c0.4-1.2,0.9-2.4,1.7-3.4h-5.7c-3.4-2.1-7.4-3.2-11.4-3.2C13,0.2,8.9,1.3,5.4,3.5H0
	c0.8,1,1.3,2.2,1.7,3.4c-2.8,3.8-2,9.2,1.8,12c3.7,2.7,8.9,2,11.8-1.6l1.8,2.7l1.8-2.8c2.9,3.7,8.3,4.4,12,1.5
	C34.7,15.9,35.4,10.7,32.6,6.9z M25.4,3.5c-4.4,0.1-8,3.5-8.3,7.9c-0.3-4.4-4-7.9-8.4-7.9c2.6-1.1,5.5-1.6,8.3-1.6
	C20,1.8,22.8,2.3,25.4,3.5z M8.6,18.8c-3.8,0-6.8-3.1-6.8-6.8c0-3.8,3.1-6.8,6.8-6.8s6.8,3.1,6.8,6.8l0,0
	C15.4,15.8,12.4,18.8,8.6,18.8z M28.1,18.5c-3.5,1.3-7.5-0.5-8.8-4.1l0,0c-1.3-3.5,0.5-7.5,4.1-8.8s7.5,0.5,8.8,4.1
	C33.4,13.2,31.6,17.2,28.1,18.5z"/>
<path class="st1" d="M8.5,7.7c-2.3,0-4.2,1.9-4.2,4.2s1.9,4.2,4.2,4.2s4.2-1.9,4.2-4.2l0,0C12.7,9.6,10.8,7.7,8.5,7.7z M8.5,14.7
	c-1.5,0-2.8-1.2-2.8-2.8s1.2-2.8,2.8-2.8s2.8,1.2,2.8,2.8l0,0C11.2,13.5,10,14.7,8.5,14.7z"/>
<path class="st1" d="M25.7,7.7c-2.3,0-4.2,1.9-4.2,4.2s1.9,4.2,4.2,4.2s4.2-1.9,4.2-4.2l0,0C29.9,9.6,28,7.7,25.7,7.7z M25.7,14.7
	c-1.5,0-2.8-1.2-2.8-2.8c0-1.5,1.2-2.8,2.8-2.8c1.5,0,2.8,1.2,2.8,2.8l0,0C28.4,13.5,27.2,14.7,25.7,14.7z"/>
<g class="st6">
	<path class="st0" d="M169.3,4.6c0.5,0.5,0.7,1.1,0.7,1.7c0,0.7-0.3,1.3-0.7,1.8c-0.5,0.5-1.1,0.7-1.7,0.7c-0.7,0-1.3-0.3-1.8-0.8
		c-0.5-0.4-0.8-1-0.8-1.7s0.3-1.3,0.8-1.8s1.1-0.7,1.7-0.7C168.2,3.8,168.8,4.1,169.3,4.6z M166.1,4.9c-0.4,0.4-0.6,0.9-0.6,1.5
		c0,1.1,0.9,2,2,2c0.5,0,1.1-0.2,1.4-0.6c0.8-0.8,0.8-2.1,0-2.9c-0.4-0.4-0.9-0.6-1.5-0.6C167,4.3,166.5,4.5,166.1,4.9z M167.6,4.9
		c0.8,0,1.2,0.3,1.2,0.8c0,0.4-0.2,0.7-0.6,0.7l0.6,1.2H168l-0.5-1.1h-0.2v1.1h-0.7V4.9H167.6L167.6,4.9z M167.2,6.1h0.3
		c0.3,0,0.5-0.1,0.5-0.4s-0.2-0.4-0.5-0.4h-0.2C167.2,5.4,167.2,6.1,167.2,6.1z"/>
</g>
</svg>
