<svg id="Layer_1" xmlns="http://www.w3.org/2000/svg" viewBox="0 0 170 25.8"><style>.st0{fill:#589442}.st1{fill:#000101}.st2{fill:#fee090}.st3{fill:none;stroke:#5f6e72;stroke-width:5.6207}.st4{fill:#fff}.st5{fill:#ba2335}.st6{opacity:.5}</style><title>TA_Logo_NewGreen</title><path class="st0" d="M121.7 2.5c0 .9.7 1.7 1.7 1.7.9 0 1.7-.7 1.7-1.7 0-.9-.7-1.7-1.7-1.7-1 .1-1.7.8-1.7 1.7z"/><path class="st1" d="M43.2 2.4l-2.5.9v3.3h-2.8v2.2h2.7v7c0 3.3 1.1 4.7 3.9 4.7.7 0 1.4-.1 2.1-.3h.1v-2.3l-.2.1c-.4.2-.9.3-1.3.3-1.3 0-1.8-.7-1.8-2.7V8.7h3.2V6.5h-3.2V2.3l-.2.1zM51.9 8.8V6.5h-2.5v13.7h2.8v-6.9c0-2.9 1.2-4.5 3.4-4.5.3 0 .7.1 1 .2l.2.1.1-2.7-1.2-.1c-1.7 0-3.2 1-3.8 2.5zM71.7 6.2c-1.9 0-3.6 1-4.6 2.5V6.5h-2.5v19.3h2.8v-7.5c1 1.4 2.6 2.1 4.2 2.1 3.5 0 5.8-2.9 5.8-7.3 0-4.1-2.3-6.9-5.7-6.9zm-.8 12c-2.2 0-3.6-1.9-3.6-4.9 0-2.9 1.4-4.8 3.7-4.8 2.1 0 3.4 1.8 3.4 4.8.1 3-1.3 4.9-3.5 4.9z"/><path class="st0" d="M85.5 6.2c-1.6 0-3.1.3-4.5 1h-.1v2.4l.2-.1c1.1-.7 2.4-1.1 3.7-1.1 1.6-.2 3 1 3.2 2.6v.7h-1.6c-4.6 0-7.1 1.7-7.1 4.7 0 2.3 1.8 4.1 4.1 4.1h.4c1.8.1 3.4-.7 4.4-2.2v2h2.5V12c-.1-3.9-1.8-5.8-5.2-5.8zm2.4 8.3c0 2.4-1.4 3.9-3.6 3.9-1.2.1-2.2-.8-2.3-2v-.2c0-1.7 1.6-2.6 4.5-2.6h1.4v.9zM102.4 0v8.4c-1-1.4-2.6-2.2-4.3-2.2-3.4 0-5.7 2.8-5.7 7 0 4.3 2.3 7.3 5.6 7.3 1.9 0 3.6-.9 4.6-2.6v2.3h2.6V0h-2.8zm-3.6 18.2c-2.1 0-3.4-1.8-3.4-4.8s1.3-4.9 3.4-4.9c2.3 0 3.7 1.8 3.7 4.9-.1 2.9-1.5 4.8-3.7 4.8zM117.6 6.5l-3.9 7.9-3.7-7.9h-3.1l6.7 13.7 6.9-13.7h-2.9zM124.6 6.5H122v13.7h2.8V6.5h-.2zM128 10.1c0 1.9 1.3 2.9 3.8 4.1 1.5.8 2.3 1.2 2.3 2.3s-1 1.8-2.5 1.8c-1.2 0-2.4-.3-3.5-.9l-.2-.1-.1 2.4h.1c1.1.4 2.4.7 3.6.7 3.4 0 5.6-1.6 5.6-4.1 0-2.1-1.4-3.1-3.8-4.3-1.8-.8-2.5-1.3-2.5-2.2 0-.8.8-1.4 2.1-1.4 1.2 0 2.3.3 3.3.8l.2.1.1-2.4h-.1c-1.1-.3-2.2-.5-3.4-.5-3 0-5 1.5-5 3.7zM145.7 6.2c-4.2 0-6.8 2.7-6.8 7.2s2.6 7.2 6.8 7.2 6.8-2.7 6.8-7.2-2.6-7.2-6.8-7.2zm0 12.1c-2.3 0-3.9-2-3.9-4.9 0-3 1.6-5 3.9-5s3.9 1.9 3.9 5c0 3-1.5 4.9-3.9 4.9zM157.6 8.8V6.5h-2.5v13.7h2.8v-6.9c0-2.9 1.2-4.5 3.4-4.5.3 0 .7.1 1 .2l.2.1.1-2.7-1.2-.1c-1.7 0-3.1 1-3.8 2.5z"/><path class="st1" d="M61.8 6.5h-2.6v13.7H62V6.5h-.2zM58.9 2.5c0 .9.7 1.7 1.7 1.7s1.7-.7 1.7-1.7c0-.9-.7-1.7-1.7-1.7-1 .1-1.7.8-1.7 1.7z"/><path class="st2" d="M5.9 4.3c3.2-.4 12.3-.7 9.8 12.5l2.8-.2C17.3 8.5 19.9 4.3 28 3.9c-13.4-7.5-21.1.3-22.1.4z"/><ellipse transform="rotate(-20.272 25.687 11.996)" class="st4" cx="25.7" cy="12" rx="7.7" ry="7.7"/><circle class="st4" cx="8.6" cy="12" r="7.7"/><circle class="st5" cx="8.5" cy="11.9" r="1.4"/><circle class="st0" cx="25.7" cy="11.9" r="1.4"/><path class="st1" d="M32.6 6.9c.4-1.2.9-2.4 1.7-3.4h-5.7C25.2 1.4 21.2.3 17.2.3 13 .2 8.9 1.3 5.4 3.5H0c.8 1 1.3 2.2 1.7 3.4-2.8 3.8-2 9.2 1.8 12 3.7 2.7 8.9 2 11.8-1.6l1.8 2.7 1.8-2.8c2.9 3.7 8.3 4.4 12 1.5 3.8-2.8 4.5-8 1.7-11.8zm-7.2-3.4c-4.4.1-8 3.5-8.3 7.9-.3-4.4-4-7.9-8.4-7.9 2.6-1.1 5.5-1.6 8.3-1.6 3-.1 5.8.4 8.4 1.6zM8.6 18.8c-3.8 0-6.8-3.1-6.8-6.8 0-3.8 3.1-6.8 6.8-6.8s6.8 3.1 6.8 6.8c0 3.8-3 6.8-6.8 6.8zm19.5-.3c-3.5 1.3-7.5-.5-8.8-4.1-1.3-3.5.5-7.5 4.1-8.8s7.5.5 8.8 4.1c1.2 3.5-.6 7.5-4.1 8.8z"/><path class="st1" d="M8.5 7.7c-2.3 0-4.2 1.9-4.2 4.2s1.9 4.2 4.2 4.2 4.2-1.9 4.2-4.2c0-2.3-1.9-4.2-4.2-4.2zm0 7c-1.5 0-2.8-1.2-2.8-2.8s1.2-2.8 2.8-2.8 2.8 1.2 2.8 2.8c-.1 1.6-1.3 2.8-2.8 2.8zM25.7 7.7c-2.3 0-4.2 1.9-4.2 4.2s1.9 4.2 4.2 4.2 4.2-1.9 4.2-4.2c0-2.3-1.9-4.2-4.2-4.2zm0 7c-1.5 0-2.8-1.2-2.8-2.8 0-1.5 1.2-2.8 2.8-2.8 1.5 0 2.8 1.2 2.8 2.8-.1 1.6-1.3 2.8-2.8 2.8z"/><path class="st6 st0" d="M169.3 4.6c.5.5.7 1.1.7 1.7 0 .7-.3 1.3-.7 1.8-.5.5-1.1.7-1.7.7-.7 0-1.3-.3-1.8-.8-.5-.4-.8-1-.8-1.7s.3-1.3.8-1.8 1.1-.7 1.7-.7c.7 0 1.3.3 1.8.8zm-3.2.3c-.4.4-.6.9-.6 1.5 0 1.1.9 2 2 2 .5 0 1.1-.2 1.4-.6.8-.8.8-2.1 0-2.9-.4-.4-.9-.6-1.5-.6-.4 0-.9.2-1.3.6zm1.5 0c.8 0 1.2.3 1.2.8 0 .4-.2.7-.6.7l.6 1.2h-.8l-.5-1.1h-.2v1.1h-.7V4.9h1zm-.4 1.2h.3c.3 0 .5-.1.5-.4s-.2-.4-.5-.4h-.2c-.1.1-.1.8-.1.8z"/></svg>