<svg xmlns="http://www.w3.org/2000/svg" viewBox="0 0 444.54 512"><title>fire</title><path d="M158.87,512c-34.12-71-16-111.69,10.27-150,28.72-42,36.12-83.53,36.12-83.53s22.58,29.35,13.55,75.25c39.89-44.4,47.41-115.14,41.39-142.23C350.36,274.47,388.9,410.9,337,512c276.19-156.27,68.7-390.09,32.58-416.42,12,26.34,14.33,70.92-10,92.56C318.37,32,216.56,0,216.56,0c12,80.52-43.65,168.57-97.35,234.36-1.89-32.11-3.89-54.26-20.78-85C94.65,207.7,50.07,255.25,38,313.69,21.65,392.83,50.25,450.78,158.87,512Z" transform="translate(-33.73)" style="fill:red"/></svg>