<svg xmlns="http://www.w3.org/2000/svg" viewBox="0 0 219.27 365.45"><title>mobile-phone</title><path fill="#bfbfbf" d="M281.51,10.85A35.1,35.1,0,0,0,255.81,0H109.64a35.12,35.12,0,0,0-25.7,10.85A35.11,35.11,0,0,0,73.09,36.54V328.9A35.11,35.11,0,0,0,83.94,354.6a35.12,35.12,0,0,0,25.7,10.85H255.81a37.06,37.06,0,0,0,36.54-36.54V36.54A35.1,35.1,0,0,0,281.51,10.85ZM159.88,36.54h45.68q4.57,0,4.57,4.57t-4.57,4.57H159.88q-4.57,0-4.57-4.57T159.88,36.54Zm39,308.49a22.75,22.75,0,1,1,6.71-16.13A22,22,0,0,1,198.86,345ZM265,283.23a9.26,9.26,0,0,1-9.13,9.13H109.64a9.25,9.25,0,0,1-9.13-9.13v-201a9.27,9.27,0,0,1,9.13-9.14H255.81a9.26,9.26,0,0,1,9.14,9.14v201h0Z" transform="translate(-73.09)"/></svg>