<svg xmlns="http://www.w3.org/2000/svg" viewBox="0 0 512 511.99"><title>pencil</title><path d="M493.28,154.52l-22.63,22.64L334.87,41.4l22.63-22.64a64,64,0,0,1,90.53,0L493.28,64A64,64,0,0,1,493.28,154.52ZM176.46,426a16,16,0,0,0,22.63,22.62L448,199.78l-22.65-22.64ZM63.31,312.91a16,16,0,1,0,22.63,22.62L334.87,86.64,312.25,64ZM357.46,109.25l-248.9,248.9a32,32,0,1,0,45.28,45.22l248.9-248.85Zm-203.69,362c-7.65-7.66-11.34-17.37-12.72-27.38a64.58,64.58,0,0,1-9.88,1,62.52,62.52,0,0,1-63.09-73.21,47.46,47.46,0,0,1-27.41-13.44c-.72-.71-1-1.68-1.62-2.47L0,512l155.9-39C155.22,472.34,154.44,471.87,153.78,471.22Z" transform="translate(0 0)" style="fill:#fff"/></svg>