<svg xmlns="http://www.w3.org/2000/svg" viewBox="0 0 106.06 106.06"><title>smiling-icon</title><path fill="#1d79d6" d="M90.54,90.54a53.05,53.05,0,1,0-75,0A53.11,53.11,0,0,0,90.54,90.54ZM21.3,21.3a44.87,44.87,0,1,1,0,63.46A44.92,44.92,0,0,1,21.3,21.3ZM27,69.86S24,58.43,33.71,61c0,0,17.14,9.29,38.65,0,9.66-2.56,6.71,8.87,6.71,8.87-5.52,17-26,15.58-26,15.58S32.52,86.82,27,69.86Zm6.24-31.19a6.2,6.2,0,1,1,6.2,6.2A6.2,6.2,0,0,1,33.24,38.67Zm28.12,0a6.2,6.2,0,1,1,6.2,6.2A6.2,6.2,0,0,1,61.36,38.67Z" transform="translate(0 0)"/></svg>